<svg width="68" height="46" viewBox="0 0 68 46" fill="none" xmlns="http://www.w3.org/2000/svg">
<path d="M37.38 31.5755L36.1343 30.0708L34.1803 20.4802C34.1803 19.7579 34.1547 19.0255 34.1036 18.2832C34.0353 17.5408 33.8646 16.8687 33.5916 16.2668C33.3015 15.6849 32.8749 15.2034 32.3117 14.8222C31.7315 14.4409 30.921 14.2503 29.88 14.2503C28.839 14.2503 28.037 14.4409 27.4739 14.8222C26.8937 15.2034 26.467 15.6849 26.194 16.2668C25.9039 16.8687 25.7332 17.5408 25.6821 18.2832C25.6138 19.0255 25.5797 19.7579 25.5797 20.4802L25.5797 33L22.38 33L22.38 19.2462C22.38 17.8618 22.5592 16.658 22.9175 15.6347C23.2759 14.6115 23.7879 13.7487 24.4534 13.0465C25.1018 12.3643 25.8868 11.8527 26.8083 11.5116C27.7298 11.1705 28.7537 11 29.88 11C31.0063 11 32.0302 11.1705 32.9517 11.5116C33.8732 11.8527 34.6667 12.3643 35.3322 13.0465C35.9807 13.7487 36.4841 14.6115 36.8425 15.6347C37.2008 16.658 37.38 17.8618 37.38 19.2462L37.38 31.5755Z" fill="white"/>
<path d="M34.0989 14L36.1216 15.5L37.1727 24.2163C37.1785 24.9363 37.2089 25.6659 37.2642 26.4053C37.3358 27.1445 37.5056 27.8126 37.7735 28.4094C38.0577 28.9861 38.4727 29.4612 39.0185 29.8348C39.5807 30.2082 40.3634 30.389 41.3666 30.3772C42.3698 30.3654 43.1412 30.1663 43.6809 29.7799C44.2371 29.3934 44.6444 28.9085 44.9029 28.3255C45.1777 27.7222 45.3368 27.0503 45.3803 26.3098C45.4402 25.569 45.4673 24.8387 45.4615 24.1187L45.8842 13.5L48.0656 13.5L48.5549 25.3123C48.5659 26.6923 48.4028 27.8942 48.0656 28.9183C47.7283 29.9423 47.2418 30.8081 46.606 31.5156C45.9864 32.2029 45.234 32.7218 44.3486 33.0722C43.4632 33.4227 42.4778 33.6043 41.3924 33.6171C40.3069 33.6298 39.3188 33.4715 38.428 33.1419C37.5372 32.8124 36.7684 32.3114 36.1216 31.639C35.4911 30.9464 34.9991 30.0922 34.6456 29.0763C34.2921 28.0604 34.1099 26.8625 34.0989 25.4826L34.0989 14Z" fill="white"/>
<path d="M12 12.7551H15.1917L23.0743 28.2257H23.1226L23.582 18.314L26 14.1472V33.7551H22.8083L14.9499 18.314H14.8774V33.7551H12V12.7551Z" fill="white"/>
<path d="M45 12.7551H48.1917L56.0743 28.2257H56.1226V12.7551H59V33.7551H55.8083L47.9499 18.314H47.8774L46.1042 28.8531L45 31.3041V12.7551Z" fill="white"/>
</svg>
