<svg width="32" height="32" viewBox="0 0 32 32" fill="none" xmlns="http://www.w3.org/2000/svg">
<rect width="32" height="32" fill="white"/>
<path d="M17.5911 20.1012L17.0048 19.3816L16.0853 14.7948C16.0853 14.4493 16.0733 14.099 16.0492 13.744C16.0171 13.389 15.9367 13.0675 15.8083 12.7796C15.6718 12.5013 15.471 12.2711 15.206 12.0888C14.9329 11.9064 14.5515 11.8152 14.0616 11.8152C13.5718 11.8152 13.1943 11.9064 12.9294 12.0888C12.6563 12.2711 12.4555 12.5013 12.3271 12.7796C12.1905 13.0675 12.1102 13.389 12.0862 13.744C12.054 14.099 12.038 14.4493 12.038 14.7948V20.7825H10.5322V14.2046C10.5322 13.5425 10.6166 12.9667 10.7852 12.4773C10.9538 11.988 11.1948 11.5753 11.5079 11.2395C11.8131 10.9132 12.1825 10.6686 12.6161 10.5054C13.0498 10.3423 13.5316 10.2607 14.0616 10.2607C14.5917 10.2607 15.0735 10.3423 15.5071 10.5054C15.9408 10.6686 16.3142 10.9132 16.6274 11.2395C16.9326 11.5753 17.1694 11.988 17.3381 12.4773C17.5067 12.9667 17.5911 13.5425 17.5911 14.2046V20.1012Z" fill="#002C14"/>
<path d="M16.0469 11.6952L16.9987 12.4126L17.4934 16.5812C17.4961 16.9256 17.5104 17.2745 17.5364 17.6282C17.5701 17.9817 17.65 18.3012 17.7761 18.5866C17.9098 18.8625 18.1051 19.0897 18.362 19.2684C18.6265 19.4469 18.9949 19.5334 19.467 19.5278C19.9391 19.5221 20.3021 19.4269 20.5561 19.2421C20.8178 19.0572 21.0095 18.8253 21.1311 18.5465C21.2604 18.258 21.3353 17.9366 21.3558 17.5825C21.384 17.2282 21.3967 16.8789 21.394 16.5346L21.5929 11.4561H22.6194L22.8497 17.1054C22.8549 17.7654 22.7781 18.3402 22.6194 18.83C22.4607 19.3198 22.2318 19.7338 21.9326 20.0722C21.641 20.4009 21.2869 20.6491 20.8703 20.8167C20.4536 20.9843 19.9899 21.0712 19.4791 21.0773C18.9683 21.0834 18.5033 21.0076 18.0841 20.85C17.6649 20.6924 17.3031 20.4528 16.9987 20.1312C16.702 19.8 16.4705 19.3915 16.3041 18.9056C16.1378 18.4197 16.0521 17.8468 16.0469 17.1869V11.6952Z" fill="#002C14"/>
<path d="M5.64746 11.1006H7.14944L10.8589 18.4996H10.8816L11.0978 13.7592L12.2357 11.7664V21.1441H10.7337L7.03565 13.7592H7.00153V21.1441H5.64746V11.1006Z" fill="#002C14"/>
<path d="M21.1768 11.1006H22.6787L26.3882 18.4996H26.4109V11.1006H27.765V21.1441H26.263L22.5649 13.7592H22.5308L21.6964 18.7996L21.1768 19.9718V11.1006Z" fill="#002C14"/>
</svg>
